HIERARCHY
ROOT Hips
{
	OFFSET -0.001795 -0.223333 0.028219
	CHANNELS 6 Xposition Yposition Zposition Zrotation Yrotation Xrotation 
	JOINT LeftUpLeg
	{
		OFFSET 0.069520 -0.091406 -0.006815
		CHANNELS 3 Zrotation Yrotation Xrotation
		JOINT LeftLeg
		{
			OFFSET 0.034277 -0.375199 -0.004496
			CHANNELS 3 Zrotation Yrotation Xrotation
			JOINT LeftFoot
			{
				OFFSET -0.013596 -0.397961 -0.043693
				CHANNELS 3 Zrotation Yrotation Xrotation
				JOINT LeftToe
				{
					OFFSET 0.026358 -0.055791 0.119288
					CHANNELS 3 Zrotation Yrotation Xrotation
					End Site
					{
						OFFSET 0.000000 0.000000 0.000000
					}
				}
			}
		}
	}
	JOINT RightUpLeg
	{
		OFFSET -0.067670 -0.090522 -0.004320
		CHANNELS 3 Zrotation Yrotation Xrotation
		JOINT RightLeg
		{
			OFFSET -0.038290 -0.382569 -0.008850
			CHANNELS 3 Zrotation Yrotation Xrotation
			JOINT RightFoot
			{
				OFFSET 0.015774 -0.398415 -0.042312
				CHANNELS 3 Zrotation Yrotation Xrotation
				JOINT RightToe
				{
					OFFSET -0.025372 -0.048144 0.123348
					CHANNELS 3 Zrotation Yrotation Xrotation
					End Site
					{
						OFFSET 0.000000 0.000000 0.000000
					}
				}
			}
		}
	}
	JOINT Spine
	{
		OFFSET -0.002533 0.108963 -0.026696
		CHANNELS 3 Zrotation Yrotation Xrotation
		JOINT Spine1
		{
			OFFSET 0.005487 0.135180 0.001092
			CHANNELS 3 Zrotation Yrotation Xrotation
			JOINT Spine2
			{
				OFFSET 0.001457 0.052922 0.025425
				CHANNELS 3 Zrotation Yrotation Xrotation
				JOINT Neck
				{
					OFFSET -0.002778 0.213870 -0.042857
					CHANNELS 3 Zrotation Yrotation Xrotation
					JOINT Head
					{
						OFFSET 0.005152 0.064970 0.051349
						CHANNELS 3 Zrotation Yrotation Xrotation
						End Site
						{
							OFFSET 0.000000 0.000000 0.000000
						}
					}
				}
				JOINT LeftShoulder
				{
					OFFSET 0.078845 0.121749 -0.034090
					CHANNELS 3 Zrotation Yrotation Xrotation
					JOINT LeftArm
					{
						OFFSET 0.090977 0.030469 -0.008868
						CHANNELS 3 Zrotation Yrotation Xrotation
						JOINT LeftForeArm
						{
							OFFSET 0.259612 -0.012772 -0.027456
							CHANNELS 3 Zrotation Yrotation Xrotation
							JOINT LeftHand
							{
								OFFSET 0.249234 0.008986 -0.001171
								CHANNELS 3 Zrotation Yrotation Xrotation
								End Site
								{
									OFFSET 0.000000 0.000000 0.000000
								}
							}
						}
					}
				}
				JOINT RightShoulder
				{
					OFFSET -0.081759 0.118833 -0.038615
					CHANNELS 3 Zrotation Yrotation Xrotation
					JOINT RightArm
					{
						OFFSET -0.096012 0.032551 -0.009143
						CHANNELS 3 Zrotation Yrotation Xrotation
						JOINT RightForeArm
						{
							OFFSET -0.253742 -0.013329 -0.021401
							CHANNELS 3 Zrotation Yrotation Xrotation
							JOINT RightHand
							{
								OFFSET -0.255298 0.007772 -0.005559
								CHANNELS 3 Zrotation Yrotation Xrotation
								End Site
								{
									OFFSET 0.000000 0.000000 0.000000
								}
							}
						}
					}
				}
			}
		}
	}
}
MOTION
Frames: 18
Frame Time: 0.050000
0.000000 0.941793 0.000000 0.168079 -2.819534 7.180293 6.355577 -0.328202 -4.871939 -0.273066 0.165779 -4.251034 1.643765 6.340808 9.562173 0.000000 0.000000 0.000000 -4.752656 0.499144 -4.704346 -2.070791 -0.001628 -3.553635 -1.197473 -6.960600 9.909036 0.000000 0.000000 0.000000 5.199592 0.393907 -6.314149 -3.085970 1.396998 -4.295007 -3.582235 5.077589 5.801894 5.778146 -2.556920 -12.021370 0.000000 0.000000 0.000000 -15.284728 -1.077358 -1.715575 -57.249800 -6.987605 -3.557240 -5.523600 -15.834940 1.255160 0.000000 0.000000 0.000000 12.897907 -5.053192 -2.925030 65.629586 6.617423 -2.381625 5.688240 18.169894 1.537113 0.000000 0.000000 0.000000 
0.000258 0.940822 0.000101 0.165269 -3.124922 8.009247 6.266726 -0.327511 -4.536846 -0.036472 0.199042 -5.667047 1.612828 6.290535 9.715026 0.000000 0.000000 0.000000 -4.544638 0.575872 -5.790006 -2.677164 0.062055 -3.140053 -0.902193 -6.625126 10.532963 0.000000 0.000000 0.000000 6.222117 0.475823 -7.020269 -3.733665 1.659645 -4.653595 -4.509876 5.578558 5.575839 5.869344 -2.441729 -12.821753 0.000000 0.000000 0.000000 -16.388195 -0.551703 -2.241273 -55.759095 -7.137212 -3.317950 -5.643019 -15.691786 1.245996 0.000000 0.000000 0.000000 13.099844 -6.208043 -3.446240 66.443870 6.426347 -2.407579 5.841587 17.400874 1.492013 0.000000 0.000000 0.000000 
0.000371 0.940717 -0.000001 0.522680 -3.001972 7.795156 5.714200 -0.350675 -4.941337 0.302716 0.112795 -3.987890 1.426518 5.645242 8.431244 0.000000 0.000000 0.000000 -4.882716 0.576369 -5.866224 -2.901578 0.081337 -3.101414 -1.539517 -7.851295 10.535063 0.000000 0.000000 0.000000 6.054365 0.457095 -6.847632 -3.580325 1.587642 -5.150623 -4.942160 5.060963 5.660047 5.604618 -2.471356 -11.769048 0.000000 0.000000 0.000000 -16.116020 -0.841623 -1.970566 -55.968154 -6.402172 -3.710492 -4.732407 -15.229477 1.102778 0.000000 0.000000 0.000000 14.100294 -5.134774 -3.068435 65.144063 6.452059 -2.495478 6.068425 17.358505 1.505963 0.000000 0.000000 0.000000 
0.000399 0.940696 -0.000078 0.746326 -2.875375 8.198399 5.846213 -0.366870 -5.215263 -0.164486 0.161446 -4.360754 1.095346 5.214268 8.954203 0.000000 0.000000 0.000000 -4.970669 0.611484 -6.400573 -3.177495 0.095803 -3.180276 -1.760040 -8.475380 11.275062 0.000000 0.000000 0.000000 5.975896 0.458244 -6.986408 -3.932189 1.743006 -4.752938 -4.726940 4.210885 4.570129 5.196727 -2.432581 -10.525870 0.000000 0.000000 0.000000 -16.263656 0.005897 -2.280917 -56.198393 -6.637570 -3.504238 -3.672047 -15.049885 0.964169 0.000000 0.000000 0.000000 13.033929 -5.201215 -3.140164 65.482112 6.064271 -2.610217 6.991412 17.832295 1.650286 0.000000 0.000000 0.000000 
0.000332 0.941185 -0.000206 0.986332 -2.569968 8.071056 5.347671 -0.389034 -5.454356 0.232113 0.114161 -3.872157 0.967383 5.014317 8.926533 0.000000 0.000000 0.000000 -5.084210 0.608158 -6.437536 -3.564074 0.128495 -3.127791 -1.876906 -8.657008 11.262414 0.000000 0.000000 0.000000 5.693625 0.431589 -6.791141 -3.600272 1.606357 -4.775328 -4.988225 4.005230 4.512997 4.916099 -2.181456 -10.915795 0.000000 0.000000 0.000000 -16.046335 -0.139180 -2.185532 -56.277711 -6.695817 -3.481689 -3.826703 -14.815077 0.967358 0.000000 0.000000 0.000000 13.041610 -5.330549 -3.199697 65.141456 6.141595 -2.550907 7.383642 17.723672 1.693600 0.000000 0.000000 0.000000 
0.000263 0.941633 -0.000242 1.152701 -2.538836 8.322301 5.307511 -0.401213 -5.621742 -0.019855 0.135497 -3.926060 1.156752 5.405677 9.129626 0.000000 0.000000 0.000000 -5.132299 0.616932 -6.545755 -3.909674 0.126733 -3.487671 -1.895886 -8.884665 11.986675 0.000000 0.000000 0.000000 5.464829 0.421784 -6.807685 -3.548694 1.579084 -5.073778 -4.904361 3.947234 4.477196 5.252764 -2.449564 -10.654234 0.000000 0.000000 0.000000 -16.441855 0.311275 -2.458062 -55.927900 -6.333888 -3.609622 -3.854477 -15.247930 0.999475 0.000000 0.000000 0.000000 12.788892 -5.432581 -3.232118 65.340168 5.961710 -2.640309 7.414730 17.699121 1.692470 0.000000 0.000000 0.000000 
0.000220 0.942083 -0.000292 1.234625 -2.377314 8.367303 5.157996 -0.417505 -5.858183 0.021224 0.127098 -3.776745 1.182567 5.598196 9.603988 0.000000 0.000000 0.000000 -5.059771 0.618078 -6.579514 -4.110991 0.136876 -3.548466 -1.766801 -8.617419 11.967965 0.000000 0.000000 0.000000 5.352707 0.403231 -6.663301 -3.482781 1.553192 -5.078904 -4.963775 3.720764 4.395147 5.396910 -2.475952 -11.163279 0.000000 0.000000 0.000000 -16.322548 0.674863 -2.596848 -55.820699 -5.939456 -3.781826 -4.225106 -15.718126 1.081916 0.000000 0.000000 0.000000 12.717838 -5.477654 -3.265567 65.415921 5.591748 -2.848400 7.535208 18.140628 1.755313 0.000000 0.000000 0.000000 
0.000253 0.942473 -0.000364 1.358129 -2.056712 8.673622 5.032559 -0.449657 -6.336542 0.045237 0.115253 -3.492552 1.098623 5.490797 9.625355 0.000000 0.000000 0.000000 -5.105423 0.627700 -6.744824 -4.195676 0.139791 -3.604143 -1.916517 -8.840686 11.913135 0.000000 0.000000 0.000000 5.177193 0.398260 -6.752652 -3.348555 1.499272 -5.126595 -5.134340 3.741387 4.223938 5.459612 -2.531111 -10.933385 0.000000 0.000000 0.000000 -16.182856 0.870343 -2.724253 -55.466211 -5.536789 -3.922862 -4.632094 -16.429932 1.179754 0.000000 0.000000 0.000000 12.656798 -5.871258 -3.417671 65.563606 5.111383 -3.075573 7.465349 18.446222 1.786565 0.000000 0.000000 0.000000 
0.000305 0.942834 -0.000474 1.551381 -1.943269 8.710035 4.794488 -0.471413 -6.622866 0.102246 0.100324 -3.198659 1.060285 5.426933 9.587241 0.000000 0.000000 0.000000 -5.213995 0.630941 -6.834715 -4.264434 0.147912 -3.567468 -1.952354 -8.875375 11.847361 0.000000 0.000000 0.000000 5.052393 0.386464 -6.673639 -3.351739 1.498894 -5.357101 -5.140691 3.773234 4.359410 5.393846 -2.474754 -10.982808 0.000000 0.000000 0.000000 -15.958273 1.181466 -2.855242 -55.373519 -5.399780 -3.997283 -4.924496 -16.687481 1.237752 0.000000 0.000000 0.000000 12.493302 -6.081777 -3.485259 65.530910 4.681034 -3.317376 7.447805 18.723905 1.820575 0.000000 0.000000 0.000000 
0.000314 0.943077 -0.000552 1.669271 -1.877568 8.716306 4.632067 -0.488094 -6.853127 0.125900 0.090282 -2.970295 1.031213 5.328072 9.389143 0.000000 0.000000 0.000000 -5.335176 0.627371 -6.802571 -4.214135 0.126665 -3.808306 -1.999125 -8.996640 12.015099 0.000000 0.000000 0.000000 5.073373 0.380189 -6.606769 -3.403724 1.519973 -5.447150 -5.230900 3.917249 4.350780 5.220020 -2.330158 -11.065526 0.000000 0.000000 0.000000 -15.827400 1.166465 -2.865743 -55.200356 -5.380060 -3.992694 -4.896519 -16.799231 1.235835 0.000000 0.000000 0.000000 12.420946 -6.191817 -3.501983 65.510847 4.436492 -3.432955 7.040777 18.762068 1.771568 0.000000 0.000000 0.000000 
0.000271 0.943144 -0.000566 1.798215 -1.965727 8.746420 4.569706 -0.488218 -6.824158 0.147037 0.090436 -3.024544 1.017377 5.294376 9.386035 0.000000 0.000000 0.000000 -5.478943 0.633782 -6.923431 -4.175126 0.136518 -3.636507 -2.041082 -9.085247 12.011350 0.000000 0.000000 0.000000 5.084679 0.376290 -6.558019 -3.465708 1.543247 -5.536632 -5.300807 3.962138 4.375240 5.173714 -2.300870 -11.052586 0.000000 0.000000 0.000000 -15.924723 1.196395 -2.897610 -55.033774 -5.466358 -3.937845 -4.523564 -16.748472 1.178552 0.000000 0.000000 0.000000 12.358329 -6.249384 -3.521209 65.440583 4.314435 -3.498656 7.092658 18.886878 1.793744 0.000000 0.000000 0.000000 
0.000182 0.943139 -0.000504 1.891425 -1.696610 8.799894 4.587959 -0.487974 -6.762239 0.056990 0.104082 -3.197542 0.784638 4.919977 9.396819 0.000000 0.000000 0.000000 -5.536490 0.627076 -6.852544 -4.314278 0.142120 -3.709183 -2.174052 -9.335768 12.161164 0.000000 0.000000 0.000000 5.083360 0.377017 -6.607361 -3.431600 1.533488 -5.438889 -5.492601 3.906591 4.126959 4.796718 -2.071616 -10.802516 0.000000 0.000000 0.000000 -15.725187 1.220488 -2.910781 -55.097699 -5.716695 -3.808176 -4.057677 -16.279231 1.074730 0.000000 0.000000 0.000000 12.291025 -6.573502 -3.654241 65.385697 4.151621 -3.539232 7.004465 18.867532 1.780851 0.000000 0.000000 0.000000 
0.000062 0.943226 -0.000355 1.919088 -1.659291 8.804418 4.539959 -0.481810 -6.604253 0.117637 0.108371 -3.454746 0.698810 4.783012 9.425598 0.000000 0.000000 0.000000 -5.419979 0.627013 -6.840427 -4.490654 0.163601 -3.589593 -2.137262 -9.270411 12.188854 0.000000 0.000000 0.000000 5.086027 0.382620 -6.672842 -3.357620 1.505692 -5.254636 -5.548085 3.773665 3.747196 4.517113 -1.938280 -10.443894 0.000000 0.000000 0.000000 -15.776740 1.500413 -3.048756 -54.888437 -5.871981 -3.683739 -3.840885 -15.842219 1.016034 0.000000 0.000000 0.000000 12.117569 -6.788797 -3.754739 65.354936 4.015310 -3.573527 6.980690 19.172939 1.805028 0.000000 0.000000 0.000000 
-0.000058 0.943241 -0.000210 1.927493 -1.491930 8.795909 4.553973 -0.479973 -6.547159 0.159684 0.109056 -3.563726 0.540093 4.526138 9.430821 0.000000 0.000000 0.000000 -5.290018 0.626322 -6.840301 -4.681032 0.174740 -3.627214 -2.239407 -9.449410 12.226642 0.000000 0.000000 0.000000 5.187546 0.392634 -6.774577 -3.353678 1.506103 -5.219088 -5.675027 3.589770 3.642228 4.088560 -1.701697 -10.104955 0.000000 0.000000 0.000000 -15.787146 1.659525 -3.119745 -54.862003 -6.013028 -3.605946 -3.489618 -15.421076 0.943171 0.000000 0.000000 0.000000 12.014811 -7.129896 -3.914079 65.377168 3.689406 -3.743838 7.041669 19.681998 1.869604 0.000000 0.000000 0.000000 
-0.000174 0.943304 -0.000090 1.974816 -1.591114 8.808009 4.449696 -0.480493 -6.515366 0.272432 0.101781 -3.603773 0.652479 4.704467 9.408131 0.000000 0.000000 0.000000 -5.272093 0.626214 -6.814636 -4.852825 0.183025 -3.661867 -2.246424 -9.501643 12.332310 0.000000 0.000000 0.000000 5.209353 0.404254 -6.895179 -3.340445 1.499093 -5.279900 -5.786087 3.557255 3.552822 4.032609 -1.715305 -9.770837 0.000000 0.000000 0.000000 -15.484497 1.794103 -3.121051 -55.070313 -6.028873 -3.618451 -3.391139 -15.211755 0.919220 0.000000 0.000000 0.000000 11.802850 -7.432425 -4.040956 65.534815 3.559645 -3.811359 6.962872 19.920924 1.880722 0.000000 0.000000 0.000000 
-0.000253 0.943279 0.000002 2.079440 -1.645985 8.787700 4.286395 -0.483851 -6.505159 0.531656 0.078685 -3.526063 0.587876 4.544802 9.268413 0.000000 0.000000 0.000000 -5.326657 0.624093 -6.778192 -5.123775 0.190394 -3.790531 -2.289767 -9.636782 12.530677 0.000000 0.000000 0.000000 5.291001 0.416041 -6.998168 -3.411870 1.528550 -5.253898 -5.937896 3.497209 3.479444 3.651125 -1.457169 -9.796587 0.000000 0.000000 0.000000 -15.204335 2.006864 -3.165294 -55.247111 -6.357781 -3.483528 -3.386953 -14.976664 0.905557 0.000000 0.000000 0.000000 11.489798 -7.543983 -4.061318 65.921096 3.376549 -3.918565 6.810266 20.073932 1.870700 0.000000 0.000000 0.000000 
-0.000299 0.943156 0.000101 2.209885 -1.825202 8.831575 4.077977 -0.480370 -6.353779 0.626371 0.079601 -3.736097 0.668784 4.681629 9.312451 0.000000 0.000000 0.000000 -5.319461 0.624935 -6.749760 -5.390284 0.192872 -3.953474 -2.337340 -9.786769 12.690035 0.000000 0.000000 0.000000 5.227986 0.419492 -7.042437 -3.424518 1.531280 -5.285773 -6.052927 3.546894 3.423022 3.449190 -1.353568 -9.556119 0.000000 0.000000 0.000000 -14.820483 2.088872 -3.135295 -55.600310 -6.515831 -3.442399 -3.450217 -15.171367 0.925105 0.000000 0.000000 0.000000 11.331666 -7.914764 -4.216827 65.971418 3.330431 -3.935222 7.064807 20.039760 1.907169 0.000000 0.000000 0.000000 
-0.000346 0.942992 0.000213 2.352912 -1.787818 8.838244 3.986161 -0.477357 -6.246806 0.666451 0.072774 -3.642032 0.619090 4.564668 9.198645 0.000000 0.000000 0.000000 -5.296441 0.622588 -6.712447 -5.796387 0.204793 -4.120795 -2.500342 -10.141918 12.950840 0.000000 0.000000 0.000000 5.213829 0.431875 -7.191706 -3.398030 1.521394 -5.244807 -6.301416 3.546198 3.413541 3.338266 -1.292876 -9.406482 0.000000 0.000000 0.000000 -14.423233 2.222080 -3.141669 -55.861312 -6.907800 -3.290783 -3.820373 -15.146754 0.969401 0.000000 0.000000 0.000000 11.151131 -8.140754 -4.289359 66.130188 3.351102 -3.913157 7.332710 19.994865 1.947822 0.000000 0.000000 0.000000 
